<?xml version="1.0" encoding="UTF-8"?>
<svg id="Layer_1" data-name="Layer 1" xmlns="http://www.w3.org/2000/svg" version="1.1" viewBox="0 0 500 500">
  <defs>
    <style>
      .cls-1 {
        fill: #d2d2d2;
      }

      .cls-1, .cls-2, .cls-3, .cls-4, .cls-5, .cls-6 {
        stroke-width: 0px;
      }

      .cls-2 {
        fill: #000;
      }

      .cls-3 {
        fill: #d1d1d1;
      }

      .cls-4 {
        fill: #ccc;
      }

      .cls-5 {
        fill: #fff;
      }

      .cls-6 {
        fill: #bfbfbf;
      }
    </style>
  </defs>
  <path class="cls-2" d="M.5-.3v500h500V-.3H.5Z"/>
  <path class="cls-2" d="M.4-1.2v500h500V-1.2H.4Z"/>
  <path class="cls-5" d="M248,232c9.8,2.3,19.3,6.2,29,8.8,11.8,3.2,23.9,5,36,6.7,11.1,1.6,26.3-.2,36,6,18.5,12,34.9,34.9,35.9,57.4.6,12.5-5,27.9-12.1,38-4.6,6.5-10.5,12.5-17.8,16-6-26.3-22.3-48.9-45-63.3-7.4-4.7-22-13.3-30.9-8.5-2.8,1.5-5.1,3.5-6.1,6.8-.5,1.7-.5,3.9,0,5,2.2,3.9,4.8,7.4,7.3,11,11.7,16.8,22.1,39,21.6,60-.6,24.8-11.5,45.1-25.1,65-1.8,2.6-3.8,5.8-4.8,8-.9,1.2.9,5.5,2.3,7.8,5,8.2,15.7,4.2,22.7,1.9,15.5-5.2,30.1-13.5,42-24.8,7.7-7.2,12.2-17.8,20.1-24.5,4.3-3.7,10.1-5.6,14.9-8.4,8.8-5.2,17.1-11.1,25-17.6,29.5-24.3,52.6-64,50.9-103.4-1.3-29.8-10.3-58.9-24.8-85-4.2-7.6-8.8-14.9-13.8-22-7.1-10-13.1-16.2-13.3-29-.2-18.3,2.3-36.6,8-54,2.2-6.6,3.8-14.6-3-19-3.9-2.6-8.5-2.6-13-3.3-8.3-1.4-16.6-1.6-25-2.9-34.5-5.2-70.6-3.3-105,2.5-10.8,1.8-21.4,4.4-32,7.1-5.4,1.4-10.4,3.7-16,3.6-13.9-.1-27.2.8-41,2.2-5.6.6-12.4,3.1-18,2-7.2-1.3-14.5-6.7-21-9.9-14.6-7.2-29.5-13.8-44-21-7.9-4-17.3-10-26-11.9-3.8-.8-8.7-.5-10.4,3.7-3.4,8.5,7.1,14.6,12.4,19,17.3,14.4,34.4,29.1,52,43.1,7.7,6.2,18.7,12.6,24.3,20.8,3,4.4,4.2,10.2,6.5,15,4.3,9.1,9.4,17.8,15.4,26,4.9,6.7,10,13.2,15.8,19,3.1,3.1,8,6.1,9.9,10,1.9,4,.8,9.7,1.4,14,1.8,12.8,3.5,27.1,8.6,39,5.6,13.2,12.9,24.8,23.1,35,4,4,8.8,9.3,15,8.6,4.3-.5,8.2-4.2,8.7-8.6.8-6.7-1.1-14.1-.6-21,.7-10.4,3.5-20.6,3.9-31Z"/>
  <path class="cls-1" d="M137,75"/>
  <path class="cls-4" d="M403,97l1,1-1-1Z"/>
  <path class="cls-2" d="M186,102.7c-12.5,3.6-7.5,23.2,5,19.7,12.6-3.6,7.6-23.3-5-19.7Z"/>
  <path class="cls-4" d="M398,124l1,1-1-1M163,168l1,1-1-1Z"/>
  <path class="cls-4" d="M200,254l1,1-1-1Z"/>
  <path class="cls-3" d="M285,323l1,1-1-1Z"/>
  <path class="cls-6" d="M440,326l1,1-1-1Z"/>
  <path class="cls-6" d="M300,390"/>
  <path class="cls-6" d="M301,391"/>
  <path class="cls-6" d="M315,450"/>
  <path class="cls-6" d="M316,451"/>
  <path class="cls-4" d="M309,453"/>
  <path class="cls-4" d="M310,454"/>
</svg>